<?xml version="1.0" standalone="no"?><!DOCTYPE svg PUBLIC "-//W3C//DTD SVG 1.1//EN" "http://www.w3.org/Graphics/SVG/1.1/DTD/svg11.dtd"><svg t="1692075988518" class="icon" viewBox="0 0 1024 1024" version="1.1" xmlns="http://www.w3.org/2000/svg" p-id="12675" xmlns:xlink="http://www.w3.org/1999/xlink" width="256" height="256"><path d="M512 512m-501.76 0a501.76 501.76 0 1 0 1003.52 0 501.76 501.76 0 1 0-1003.52 0Z" fill="#508DEF" p-id="12676"></path><path d="M747.52 752.2304L585.1136 177.152h-139.0592l-162.4064 575.0784 228.352 188.416z" fill="#FF9E5C" p-id="12677"></path><path d="M512 950.8864c-2.2528 0-4.7104-0.8192-6.5536-2.2528l-228.352-188.416c-3.072-2.6624-4.5056-6.7584-3.2768-10.6496l122.6752-433.9712c1.6384-5.5296 7.168-8.6016 12.6976-7.168 5.5296 1.6384 8.6016 7.168 7.168 12.6976l-120.832 427.6224L512 927.5392l223.8464-178.9952-158.5152-561.152h-123.4944l-16.384 58.1632c-1.6384 5.5296-7.168 8.6016-12.6976 7.168-5.5296-1.6384-8.6016-7.168-7.168-12.6976l18.6368-65.7408c1.2288-4.5056 5.3248-7.3728 9.8304-7.3728h138.8544c4.5056 0 8.6016 3.072 9.8304 7.3728L757.3504 749.568c1.024 3.8912-0.2048 8.192-3.4816 10.8544l-235.52 188.416c-1.8432 1.4336-4.096 2.048-6.3488 2.048z" fill="#1C1D21" p-id="12678"></path><path d="M415.5392 295.936c-0.8192 0-1.8432-0.2048-2.8672-0.4096-5.5296-1.6384-8.6016-7.168-7.168-12.6976l1.8432-6.5536c1.6384-5.5296 7.168-8.6016 12.6976-7.168 5.5296 1.6384 8.6016 7.168 7.168 12.6976l-1.8432 6.5536c-1.4336 4.7104-5.5296 7.5776-9.8304 7.5776z" fill="#1C1D21" p-id="12679"></path><path d="M858.7264 764.1088l-57.1392-35.2256c-6.5536-4.096-12.288-9.0112-17.2032-14.5408-6.9632-8.192-23.3472-33.3824-23.3472-84.3776h-77.2096c0 64.7168-26.2144 87.6544-26.2144 87.6544-4.3008 4.3008-9.0112 7.9872-14.1312 11.264l-57.1392 35.2256a156.85632 156.85632 0 0 0-74.3424 133.5296v115.3024l14.1312 0.6144c156.672-4.3008 295.5264-80.4864 384.6144-196.8128-12.9024-21.0944-30.5152-39.1168-52.0192-52.6336z" fill="#8CEEF9" p-id="12680"></path><path d="M526.1312 1023.7952h-0.2048c-4.7104-0.2048-9.4208-0.4096-14.336-0.6144-5.5296-0.2048-9.6256-4.7104-9.6256-10.24v-115.3024c0-58.368 29.696-111.616 79.2576-142.1312l57.1392-35.2256c4.096-2.4576 7.7824-5.5296 11.264-8.8064 0.4096-0.6144 0.8192-1.024 1.4336-1.6384 0.2048-0.2048 22.7328-21.7088 22.7328-79.872 0-5.7344 4.5056-10.24 10.24-10.24h77.2096c5.7344 0 10.24 4.5056 10.24 10.24 0 47.5136 14.5408 70.2464 20.8896 77.824 4.3008 4.9152 9.4208 9.216 14.7456 12.4928l57.1392 35.2256c22.528 13.9264 41.5744 33.3824 55.296 55.9104 2.2528 3.6864 1.8432 8.192-0.6144 11.4688-94.4128 123.2896-237.568 196.608-392.3968 200.704l-0.4096 0.2048z m-3.8912-20.6848c1.2288 0 2.4576 0 3.8912 0.2048 146.2272-4.096 281.3952-72.0896 371.9168-187.1872-11.6736-17.408-27.0336-32.3584-44.8512-43.2128l-57.1392-35.2256c-7.168-4.5056-13.7216-10.0352-19.456-16.5888l-0.2048-0.2048c-7.168-8.6016-23.3472-33.1776-25.3952-80.896h-57.1392c-2.2528 53.0432-22.1184 77.6192-28.0576 83.5584-0.2048 0.4096-0.6144 0.8192-1.024 1.024-4.9152 4.9152-10.24 9.216-15.9744 12.9024L591.872 772.9152c-43.6224 26.8288-69.632 73.5232-69.632 124.7232v105.472z" fill="#1C1D21" p-id="12681"></path><path d="M437.6576 764.1088l-57.1392-35.2256c-5.12-3.2768-10.0352-6.9632-14.1312-11.264 0 0-26.2144-22.9376-26.2144-87.6544h-77.2096c0 51.2-16.384 76.1856-23.3472 84.3776-4.9152 5.5296-10.6496 10.6496-17.2032 14.5408l-57.1392 35.2256c-21.7088 13.312-39.3216 31.5392-52.0192 52.6336 89.088 116.3264 227.7376 192.512 384.6144 196.8128l14.1312-0.6144v-115.3024c0-54.272-28.2624-104.8576-74.3424-133.5296z" fill="#8CEEF9" p-id="12682"></path><path d="M497.8688 1023.7952h-0.2048c-154.8288-4.3008-297.984-77.4144-392.3968-200.704-2.4576-3.2768-2.8672-7.9872-0.6144-11.4688 13.7216-22.7328 32.768-42.1888 55.296-55.9104l14.9504-9.216c4.7104-3.072 11.0592-1.4336 14.1312 3.2768s1.4336 11.0592-3.2768 14.1312l-14.9504 9.216c-17.8176 11.0592-33.1776 25.8048-44.8512 43.2128 90.7264 114.8928 225.8944 183.0912 371.9168 187.1872 1.2288 0 2.4576 0 3.8912-0.2048v-105.472c0-51.2-26.0096-97.8944-69.632-124.7232l-57.1392-35.2256c-5.7344-3.4816-11.264-7.7824-15.9744-12.9024l-1.024-1.024c-5.7344-6.144-25.6-30.5152-28.0576-83.5584h-57.1392c-1.4336 34.6112-10.4448 56.9344-18.0224 69.8368-2.8672 4.9152-9.216 6.5536-13.9264 3.6864-4.9152-2.8672-6.5536-9.216-3.6864-13.9264 6.9632-12.0832 15.36-33.9968 15.36-69.8368 0-5.7344 4.5056-10.24 10.24-10.24H339.968c5.7344 0 10.24 4.5056 10.24 10.24 0 58.368 22.7328 79.872 22.9376 80.0768 0.6144 0.4096 1.024 1.024 1.4336 1.6384 3.4816 3.2768 7.168 6.144 11.0592 8.6016l57.1392 35.2256c49.5616 30.72 79.2576 83.7632 79.2576 142.1312v115.3024c0 5.5296-4.3008 9.8304-9.6256 10.24-4.9152 0.2048-9.6256 0.4096-14.336 0.6144 0-0.2048 0-0.2048-0.2048-0.2048z" fill="#1C1D21" p-id="12683"></path><path d="M211.1488 746.0864c-3.4816 0-6.7584-1.6384-8.8064-4.9152-3.072-4.7104-1.4336-11.0592 3.2768-14.1312l11.264-6.9632c4.9152-3.072 11.0592-1.4336 14.1312 3.2768s1.4336 11.0592-3.2768 14.1312l-11.264 6.9632c-1.6384 1.2288-3.4816 1.6384-5.3248 1.6384z" fill="#1C1D21" p-id="12684"></path><path d="M298.8032 690.3808c-0.8192 0-1.4336 0-2.2528-0.2048-5.5296-1.2288-9.0112-6.7584-7.7824-12.288 0.6144-2.8672 1.2288-5.7344 1.6384-8.8064 1.024-5.5296 6.3488-9.216 11.8784-8.3968 5.5296 1.024 9.216 6.3488 8.3968 11.8784l-1.8432 9.8304c-1.2288 4.7104-5.3248 7.9872-10.0352 7.9872zM165.6832 826.1632c-2.6624 0-5.12-1.024-7.168-3.072-4.096-3.8912-4.096-10.4448 0-14.5408 6.9632-6.9632 14.7456-13.1072 23.1424-18.432l57.1392-35.2256c9.0112-5.5296 16.9984-12.288 24.1664-20.48l0.6144-0.6144c3.8912-4.5056 9.4208-12.4928 14.7456-23.7568 2.4576-5.12 8.3968-7.3728 13.5168-4.9152 5.12 2.4576 7.3728 8.3968 4.9152 13.5168-4.9152 10.6496-10.8544 20.2752-17.6128 28.2624l-0.6144 0.6144-0.2048 0.2048-0.4096 0.4096c-8.3968 9.6256-18.0224 17.6128-28.672 24.3712l-57.1392 35.2256c-6.9632 4.3008-13.5168 9.4208-19.456 15.36-1.6384 2.048-4.3008 3.072-6.9632 3.072z" fill="#FFFFFF" p-id="12685"></path><path d="M512 1024c-136.8064 0-265.4208-53.248-362.0864-149.9136C53.248 777.4208 0 648.8064 0 512S53.248 246.5792 149.9136 149.9136C246.5792 53.248 375.1936 0 512 0s265.4208 53.248 362.0864 149.9136C970.752 246.5792 1024 375.1936 1024 512s-53.248 265.4208-149.9136 362.0864C777.4208 970.752 648.8064 1024 512 1024z m0-1003.52C241.0496 20.48 20.48 241.0496 20.48 512s220.5696 491.52 491.52 491.52 491.52-220.5696 491.52-491.52S782.9504 20.48 512 20.48z" fill="#1C1D21" p-id="12686"></path><path d="M301.4656 636.928c-44.8512 0-85.4016-27.4432-101.7856-69.2224l-26.2144-66.3552C138.0352 411.0336 204.5952 313.344 301.4656 313.344s163.4304 97.6896 128 187.8016l-26.2144 66.3552c-16.384 41.984-56.9344 69.4272-101.7856 69.4272z" fill="#8CEEF9" p-id="12687"></path><path d="M301.4656 647.168c-49.5616 0-93.184-29.696-111.2064-75.776l-26.2144-66.3552c-18.0224-45.4656-12.288-96.8704 15.36-137.216 27.4432-40.3456 73.1136-64.512 122.0608-64.512s94.6176 24.1664 122.0608 64.512c27.4432 40.3456 33.1776 91.7504 15.36 137.216L412.672 571.392c-18.0224 46.08-61.6448 75.776-111.2064 75.776z m0-323.584c-42.8032 0-81.1008 20.2752-105.2672 55.7056-24.1664 35.4304-28.8768 78.4384-13.312 118.1696l26.2144 66.3552c14.9504 38.0928 51.2 62.8736 92.16 62.8736s77.2096-24.576 92.16-62.8736l26.2144-66.3552c15.7696-39.7312 10.8544-82.944-13.312-118.1696-23.7568-35.4304-62.0544-55.7056-104.8576-55.7056z" fill="#1C1D21" p-id="12688"></path><path d="M294.2976 364.7488c-5.3248 0-9.8304-4.096-10.24-9.4208-0.4096-5.7344 3.8912-10.4448 9.4208-10.8544 2.6624-0.2048 5.3248-0.2048 7.7824-0.2048 5.7344 0 10.24 4.5056 10.24 10.24s-4.5056 10.24-10.24 10.24c-2.048 0-4.3008 0-6.3488 0.2048 0-0.2048-0.4096-0.2048-0.6144-0.2048zM237.7728 562.7904c-4.096 0-7.9872-2.4576-9.6256-6.5536l-26.2144-66.3552c-13.1072-33.3824-9.0112-69.632 11.0592-99.328 10.0352-14.9504 23.1424-26.4192 38.5024-34.6112 4.9152-2.6624 11.264-0.6144 13.9264 4.3008 2.6624 4.9152 0.6144 11.264-4.3008 13.9264-12.4928 6.5536-22.9376 15.9744-31.1296 28.0576-16.384 23.9616-19.6608 53.248-9.0112 80.2816l26.2144 66.3552c2.048 5.3248-0.6144 11.264-5.7344 13.312-1.2288 0.4096-2.4576 0.6144-3.6864 0.6144z" fill="#FFFFFF" p-id="12689"></path><path d="M195.078849 470.512398a61.2352 36.6592 44.999 1 0 51.843033-51.844843 61.2352 36.6592 44.999 1 0-51.843033 51.844843Z" fill="#508DEF" p-id="12690"></path><path d="M338.687996 487.932306a36.6592 61.2352 44.999 1 0 86.598139-86.601162 36.6592 61.2352 44.999 1 0-86.598139 86.601162Z" fill="#508DEF" p-id="12691"></path><path d="M244.9408 505.2416c-4.5056 0-9.216-0.6144-14.1312-1.8432-14.7456-3.6864-30.1056-12.9024-43.008-25.6-28.2624-28.2624-36.0448-65.1264-17.408-83.5584 18.6368-18.6368 55.296-10.8544 83.5584 17.408 12.9024 12.9024 21.9136 28.0576 25.6 43.008 4.096 16.7936 1.2288 31.1296-8.3968 40.7552-6.3488 6.3488-15.5648 9.8304-26.2144 9.8304z m-60.0064-96.6656c-8.8064 8.8064-3.8912 33.3824 17.408 54.6816 10.0352 10.0352 22.3232 17.6128 33.3824 20.2752 9.216 2.2528 16.9984 1.2288 21.2992-2.8672 4.3008-4.3008 5.3248-11.8784 2.8672-21.2992-2.8672-11.0592-10.24-23.3472-20.2752-33.3824-21.2992-21.2992-45.8752-26.2144-54.6816-17.408zM357.9904 505.2416c-10.6496 0-19.8656-3.4816-26.624-10.24-9.6256-9.6256-12.4928-23.9616-8.3968-40.7552 3.6864-14.7456 12.9024-30.1056 25.6-43.008 12.9024-12.9024 28.0576-21.9136 43.008-25.6 16.7936-4.096 31.1296-1.2288 40.7552 8.3968 18.6368 18.6368 10.8544 55.296-17.408 83.5584-12.9024 12.9024-28.0576 21.9136-43.008 25.6-4.7104 1.4336-9.4208 2.048-13.9264 2.048z m47.7184-100.7616c-2.8672 0-5.7344 0.4096-9.0112 1.2288-11.0592 2.8672-23.3472 10.24-33.3824 20.2752s-17.6128 22.3232-20.2752 33.3824c-2.2528 9.216-1.2288 16.9984 2.8672 21.2992 8.8064 8.8064 33.3824 3.8912 54.6816-17.408s26.2144-45.8752 17.408-54.6816c-2.6624-2.8672-6.9632-4.096-12.288-4.096zM275.0464 553.984c-5.7344 0-10.24-4.5056-10.24-10.24v-3.8912c0-5.7344 4.5056-10.24 10.24-10.24s10.24 4.5056 10.24 10.24v3.8912c0 5.5296-4.5056 10.24-10.24 10.24zM327.8848 553.984c-5.7344 0-10.24-4.5056-10.24-10.24v-3.8912c0-5.7344 4.5056-10.24 10.24-10.24s10.24 4.5056 10.24 10.24v3.8912c0 5.5296-4.5056 10.24-10.24 10.24z" fill="#1C1D21" p-id="12692"></path><path d="M722.5344 636.928c44.8512 0 85.4016-27.4432 101.7856-69.2224l26.2144-66.3552c35.4304-90.3168-30.9248-187.8016-128-187.8016-96.8704 0-163.4304 97.6896-128 187.8016l26.2144 66.3552c16.384 41.7792 56.9344 69.2224 101.7856 69.2224z" fill="#8CEEF9" p-id="12693"></path><path d="M777.6256 334.848c-1.4336 0-2.6624-0.2048-4.096-0.8192-2.048-0.8192-4.3008-1.8432-6.3488-2.4576-5.3248-2.048-7.9872-7.7824-5.9392-13.1072 2.048-5.3248 7.7824-7.9872 13.1072-5.9392 2.4576 0.8192 4.9152 1.8432 7.3728 2.8672 5.12 2.2528 7.5776 8.192 5.3248 13.5168-1.8432 3.6864-5.5296 5.9392-9.4208 5.9392z" fill="#1C1D21" p-id="12694"></path><path d="M722.5344 647.168c-49.5616 0-93.184-29.696-111.2064-75.776l-26.2144-66.3552c-18.0224-45.4656-12.288-96.8704 15.36-137.216 27.4432-40.3456 73.1136-64.512 122.0608-64.512 5.12 0 10.24 0.2048 15.36 0.8192 5.5296 0.6144 9.6256 5.5296 9.216 11.264s-5.5296 9.8304-11.264 9.216c-4.3008-0.4096-8.8064-0.6144-13.1072-0.6144-42.8032 0-81.1008 20.2752-105.2672 55.7056-24.1664 35.4304-28.8768 78.4384-13.312 118.1696l26.2144 66.3552c14.9504 38.0928 51.2 62.8736 92.16 62.8736s77.2096-24.576 92.16-62.8736l26.2144-66.3552c20.0704-50.7904 5.3248-108.7488-36.4544-144.1792-4.3008-3.6864-4.9152-10.0352-1.2288-14.336 3.6864-4.3008 10.0352-4.9152 14.336-1.2288 48.5376 40.96 65.536 108.3392 42.3936 167.3216L833.7408 571.392c-18.0224 46.08-61.6448 75.776-111.2064 75.776z" fill="#1C1D21" p-id="12695"></path><path d="M616.140905 470.508404a61.2352 36.6592 44.999 1 0 51.843033-51.844842 61.2352 36.6592 44.999 1 0-51.843033 51.844842Z" fill="#508DEF" p-id="12696"></path><path d="M666.0096 505.2416c-4.5056 0-9.216-0.6144-14.1312-1.8432-14.7456-3.6864-30.1056-12.9024-43.008-25.6-28.2624-28.2624-36.0448-65.1264-17.408-83.5584 9.6256-9.6256 23.9616-12.4928 40.7552-8.3968 14.7456 3.6864 30.1056 12.9024 43.008 25.6 12.9024 12.9024 21.9136 28.0576 25.6 43.008 4.096 16.7936 1.2288 31.1296-8.3968 40.7552-6.5536 6.5536-15.7696 10.0352-26.4192 10.0352z m-47.7184-100.7616c-5.12 0-9.4208 1.4336-12.288 4.096-8.8064 8.8064-3.8912 33.3824 17.408 54.6816 21.2992 21.2992 45.8752 26.2144 54.6816 17.408 4.3008-4.3008 5.3248-11.8784 2.8672-21.2992-2.8672-11.0592-10.24-23.3472-20.2752-33.3824s-22.3232-17.6128-33.3824-20.2752c-3.2768-1.024-6.3488-1.2288-9.0112-1.2288z m-19.456-3.072zM748.9536 553.984c-5.7344 0-10.24-4.5056-10.24-10.24v-3.8912c0-5.7344 4.5056-10.24 10.24-10.24s10.24 4.5056 10.24 10.24v3.8912c0 5.5296-4.5056 10.24-10.24 10.24zM696.1152 553.984c-5.7344 0-10.24-4.5056-10.24-10.24v-3.8912c0-5.7344 4.5056-10.24 10.24-10.24s10.24 4.5056 10.24 10.24v3.8912c0 5.5296-4.7104 10.24-10.24 10.24z" fill="#1C1D21" p-id="12697"></path><path d="M391.168 177.152a120.832 44.2368 0 1 0 241.664 0 120.832 44.2368 0 1 0-241.664 0Z" fill="#E0E0E0" p-id="12698"></path><path d="M512 231.6288c-5.7344 0-10.24-4.5056-10.24-10.24s4.5056-10.24 10.24-10.24c67.584 0 110.592-20.2752 110.592-33.9968s-43.008-33.9968-110.592-33.9968-110.592 20.0704-110.592 33.9968c0 8.6016 20.2752 23.7568 65.1264 30.72 5.5296 0.8192 9.4208 6.144 8.6016 11.6736-0.8192 5.5296-6.144 9.4208-11.6736 8.6016-51.6096-7.9872-82.5344-27.0336-82.5344-50.9952 0-35.84 65.9456-54.4768 131.072-54.4768s131.072 18.6368 131.072 54.4768-65.9456 54.4768-131.072 54.4768z" fill="#1C1D21" p-id="12699"></path><path d="M441.5488 141.312c-0.4096-3.6864-0.6144-7.5776-0.4096-11.4688 1.6384-36.864 31.9488-66.56 68.608-67.584 40.1408-1.2288 72.9088 30.9248 72.9088 70.8608 0 2.8672-0.2048 5.5296-0.4096 8.192-45.4656 15.36-95.0272 15.36-140.6976 0z" fill="#8CEEF9" p-id="12700"></path><path d="M511.7952 163.0208c-24.9856 0-49.7664-4.096-73.5232-12.0832-3.6864-1.2288-6.3488-4.5056-6.9632-8.6016-0.4096-4.3008-0.6144-8.8064-0.4096-13.1072 1.8432-42.1888 36.4544-76.1856 78.6432-77.4144 22.1184-0.6144 43.008 7.5776 58.9824 22.9376 15.7696 15.36 24.576 36.0448 24.576 58.1632 0 3.072-0.2048 6.3488-0.6144 9.4208-0.4096 3.8912-3.072 7.168-6.7584 8.3968-23.7568 8.192-48.9472 12.288-73.9328 12.288z m-60.416-29.4912c39.3216 11.8784 81.92 11.8784 121.2416 0v-0.6144c0-16.5888-6.5536-31.9488-18.432-43.4176s-27.4432-17.6128-44.032-17.2032c-31.5392 0.8192-57.344 26.2144-58.7776 57.7536v3.4816z" fill="#1C1D21" p-id="12701"></path><path d="M492.1344 121.0368c-2.8672 0-5.5296-1.2288-7.5776-3.4816-3.6864-4.3008-3.4816-10.6496 0.8192-14.5408 7.168-6.3488 16.1792-10.0352 25.3952-10.24h1.2288c9.8304 0 19.456 3.6864 26.8288 10.24 4.3008 3.6864 4.5056 10.24 0.8192 14.5408-3.6864 4.3008-10.24 4.5056-14.5408 0.8192-3.6864-3.2768-8.192-5.12-13.1072-5.12h-0.6144c-4.5056 0.2048-8.8064 1.8432-12.288 5.12-2.048 1.6384-4.5056 2.6624-6.9632 2.6624z" fill="#FFFFFF" p-id="12702"></path><path d="M418.816 1015.3984c-5.7344 0-10.24-4.5056-10.24-10.24v-76.5952c0-5.7344 4.5056-10.24 10.24-10.24s10.24 4.5056 10.24 10.24v76.5952c0 5.5296-4.5056 10.24-10.24 10.24zM418.816 903.168c-5.7344 0-10.24-4.5056-10.24-10.24v-12.288c0-5.7344 4.5056-10.24 10.24-10.24s10.24 4.5056 10.24 10.24v12.288c0 5.7344-4.5056 10.24-10.24 10.24zM604.9792 1015.3984c-5.7344 0-10.24-4.5056-10.24-10.24v-76.5952c0-5.7344 4.5056-10.24 10.24-10.24s10.24 4.5056 10.24 10.24v76.5952c0 5.5296-4.5056 10.24-10.24 10.24zM604.9792 903.168c-5.7344 0-10.24-4.5056-10.24-10.24v-12.288c0-5.7344 4.5056-10.24 10.24-10.24s10.24 4.5056 10.24 10.24v12.288c0 5.7344-4.5056 10.24-10.24 10.24z" fill="#1C1D21" p-id="12703"></path><path d="M561.7664 330.9568c-1.6384-4.096-6.5536-5.9392-10.6496-4.096l-20.6848 9.8304c-4.9152 2.2528-10.6496-1.2288-10.6496-6.7584 0-2.8672 1.6384-5.5296 4.096-6.5536 10.4448-4.9152 17.408-16.1792 15.9744-28.8768-1.4336-12.6976-11.8784-23.1424-24.576-24.576-16.9984-1.8432-31.3344 11.264-31.3344 27.8528 0 11.264 6.5536 20.8896 15.9744 25.3952 2.6624 1.2288 4.3008 3.8912 4.3008 6.7584 0 5.5296-5.7344 9.0112-10.6496 6.7584l-20.6848-9.8304c-4.096-1.8432-9.0112 0-10.6496 4.096-1.6384 3.8912 0.4096 8.3968 4.3008 10.24l27.4432 13.1072c6.3488 3.072 10.24 9.216 10.24 16.1792 0 4.7104-1.8432 9.4208-5.3248 12.6976l-16.384 16.384c-3.2768 3.2768-3.4816 8.6016 0 11.6736 1.4336 1.4336 3.4816 2.048 5.3248 2.048 2.048 0 4.096-0.8192 5.5296-2.2528l18.8416-18.8416 18.8416 18.8416c1.4336 1.4336 3.4816 2.2528 5.5296 2.2528 1.8432 0 3.6864-0.6144 5.3248-2.048 3.2768-3.072 3.2768-8.3968 0-11.6736l-16.384-16.384c-3.2768-3.2768-5.3248-7.9872-5.3248-12.6976 0-6.9632 3.8912-13.312 10.24-16.1792l27.4432-13.1072c3.4816-1.8432 5.5296-6.3488 3.8912-10.24z" fill="#FFC5B3" p-id="12704"></path><path d="M512 269.7216c1.024 0 2.2528 0 3.2768 0.2048 12.6976 1.4336 23.1424 11.6736 24.576 24.576 1.4336 12.6976-5.5296 23.9616-15.9744 28.8768-2.4576 1.2288-4.096 3.8912-4.096 6.5536 0 4.3008 3.4816 7.3728 7.3728 7.3728 1.024 0 2.048-0.2048 3.2768-0.8192l20.6848-9.8304c1.024-0.6144 2.2528-0.8192 3.2768-0.8192 3.072 0 5.9392 1.8432 7.3728 4.9152 1.6384 3.8912-0.4096 8.3968-4.3008 10.24l-27.4432 13.1072c-6.3488 3.072-10.24 9.216-10.24 16.1792 0 4.7104 1.8432 9.4208 5.3248 12.6976l16.384 16.384c3.2768 3.2768 3.4816 8.6016 0 11.6736-1.4336 1.4336-3.4816 2.048-5.3248 2.048-2.048 0-4.096-0.8192-5.5296-2.2528l-18.8416-18.8416-18.8416 18.8416c-1.4336 1.4336-3.4816 2.2528-5.5296 2.2528-1.8432 0-3.6864-0.6144-5.3248-2.048-3.2768-3.072-3.2768-8.3968 0-11.6736l16.384-16.384c3.2768-3.2768 5.3248-7.9872 5.3248-12.6976 0-6.9632-3.8912-13.312-10.24-16.1792l-27.4432-13.1072c-3.8912-1.8432-5.9392-6.3488-4.3008-10.24 1.2288-3.072 4.3008-4.9152 7.3728-4.9152 1.2288 0 2.2528 0.2048 3.2768 0.8192l20.6848 9.8304c1.024 0.4096 2.048 0.8192 3.2768 0.8192 3.8912 0 7.3728-3.072 7.3728-7.3728 0-2.8672-1.6384-5.5296-4.3008-6.7584-9.4208-4.5056-15.9744-14.1312-15.9744-25.3952 0.4096-15.36 12.9024-28.0576 28.4672-28.0576m0-20.48c-12.9024 0-25.1904 5.12-34.4064 14.336s-14.336 21.2992-14.336 34.4064c0 2.6624 0.2048 5.5296 0.6144 8.192-9.216 1.8432-17.2032 7.9872-20.8896 16.9984-5.7344 13.9264 0.6144 29.9008 14.336 36.6592l24.3712 11.4688-13.9264 13.9264c-5.5296 5.5296-8.6016 13.312-8.3968 21.0944 0.2048 7.7824 3.4816 14.9504 9.216 20.0704 5.12 4.7104 12.0832 7.3728 19.0464 7.3728 7.5776 0 14.7456-2.8672 20.0704-8.3968l4.3008-4.3008 4.3008 4.3008c5.3248 5.3248 12.4928 8.3968 20.0704 8.3968 6.9632 0 13.7216-2.6624 19.0464-7.3728 5.5296-5.12 9.0112-12.4928 9.216-20.0704 0.2048-7.9872-2.8672-15.5648-8.3968-21.0944l-13.9264-13.9264 24.3712-11.4688c13.9264-6.5536 20.0704-22.7328 14.336-36.6592-3.6864-9.0112-11.6736-15.36-20.8896-16.9984 0.8192-4.5056 0.8192-9.216 0.4096-13.9264-2.6624-22.1184-20.6848-39.936-42.8032-42.3936-2.048-0.4096-3.8912-0.6144-5.7344-0.6144zM512 547.6352c1.024 0 2.2528 0 3.2768 0.2048 12.6976 1.4336 23.1424 11.6736 24.576 24.576 1.4336 12.6976-5.5296 23.9616-15.9744 28.8768-2.4576 1.2288-4.096 3.8912-4.096 6.5536 0 4.3008 3.4816 7.3728 7.3728 7.3728 1.024 0 2.048-0.2048 3.2768-0.8192l20.6848-9.8304c1.024-0.6144 2.2528-0.8192 3.2768-0.8192 3.072 0 5.9392 1.8432 7.3728 4.9152 1.6384 3.8912-0.4096 8.3968-4.3008 10.24l-27.4432 13.1072c-6.3488 3.072-10.24 9.216-10.24 16.1792 0 4.7104 1.8432 9.4208 5.3248 12.6976l16.384 16.384c3.2768 3.2768 3.4816 8.6016 0 11.6736-1.4336 1.4336-3.4816 2.048-5.3248 2.048-2.048 0-4.096-0.8192-5.5296-2.2528l-18.8416-18.8416-18.8416 18.8416c-1.4336 1.4336-3.4816 2.2528-5.5296 2.2528-1.8432 0-3.6864-0.6144-5.3248-2.048-3.2768-3.072-3.2768-8.3968 0-11.6736l16.384-16.384c3.2768-3.2768 5.3248-7.9872 5.3248-12.6976 0-6.9632-3.8912-13.312-10.24-16.1792l-27.4432-13.1072c-3.8912-1.8432-5.9392-6.3488-4.3008-10.24 1.2288-3.072 4.3008-4.9152 7.3728-4.9152 1.2288 0 2.2528 0.2048 3.2768 0.8192l20.6848 9.8304c1.024 0.4096 2.048 0.8192 3.2768 0.8192 3.8912 0 7.3728-3.072 7.3728-7.3728 0-2.8672-1.6384-5.5296-4.3008-6.7584-9.4208-4.5056-15.9744-14.1312-15.9744-25.3952 0.4096-15.36 12.9024-28.0576 28.4672-28.0576m0-20.48c-12.9024 0-25.1904 5.12-34.4064 14.336s-14.336 21.2992-14.336 34.4064c0 2.6624 0.2048 5.5296 0.6144 8.192-9.216 1.8432-17.2032 7.9872-20.8896 16.9984-5.7344 13.9264 0.6144 29.9008 14.336 36.6592l24.3712 11.4688-13.9264 13.9264c-5.5296 5.5296-8.6016 13.312-8.3968 21.0944 0.2048 7.7824 3.4816 14.9504 9.216 20.0704 5.12 4.7104 12.0832 7.3728 19.0464 7.3728 7.5776 0 14.7456-2.8672 20.0704-8.3968l4.3008-4.3008 4.3008 4.3008c5.3248 5.3248 12.4928 8.3968 20.0704 8.3968 6.9632 0 13.7216-2.6624 19.0464-7.3728 5.5296-5.12 9.0112-12.4928 9.216-20.0704 0.2048-7.9872-2.8672-15.5648-8.3968-21.0944l-13.9264-13.9264 24.3712-11.4688c13.9264-6.5536 20.0704-22.7328 14.336-36.6592-3.6864-9.0112-11.6736-15.36-20.8896-16.9984 0.8192-4.5056 0.8192-9.216 0.4096-13.9264-2.6624-22.1184-20.6848-39.936-42.8032-42.3936-2.048-0.4096-3.8912-0.6144-5.7344-0.6144z" fill="#1C1D21" p-id="12705"></path><path d="M561.7664 608.8704c-1.6384-4.096-6.5536-5.9392-10.6496-4.096l-20.6848 9.8304c-4.9152 2.2528-10.6496-1.2288-10.6496-6.7584 0-2.8672 1.6384-5.5296 4.096-6.5536 10.4448-4.9152 17.408-16.1792 15.9744-28.8768-1.4336-12.6976-11.8784-23.1424-24.576-24.576-16.9984-1.8432-31.3344 11.264-31.3344 27.8528 0 11.264 6.5536 20.8896 15.9744 25.3952 2.6624 1.2288 4.3008 3.8912 4.3008 6.7584 0 5.5296-5.7344 9.0112-10.6496 6.7584l-20.6848-9.8304c-4.096-1.8432-9.0112 0-10.6496 4.096-1.6384 3.8912 0.4096 8.3968 4.3008 10.24l27.4432 13.1072c6.3488 3.072 10.24 9.216 10.24 16.1792 0 4.7104-1.8432 9.4208-5.3248 12.6976l-16.384 16.384c-3.2768 3.2768-3.4816 8.6016 0 11.6736 1.4336 1.4336 3.4816 2.048 5.3248 2.048 2.048 0 4.096-0.8192 5.5296-2.2528l18.8416-18.8416 18.8416 18.8416c1.4336 1.4336 3.4816 2.2528 5.5296 2.2528 1.8432 0 3.6864-0.6144 5.3248-2.048 3.2768-3.072 3.2768-8.3968 0-11.6736l-16.384-16.384c-3.2768-3.2768-5.3248-7.9872-5.3248-12.6976 0-6.9632 3.8912-13.312 10.24-16.1792l27.4432-13.1072c3.4816-1.8432 5.5296-6.3488 3.8912-10.24z" fill="#FFC5B3" p-id="12706"></path><path d="M725.1968 690.3808c-4.7104 0-9.0112-3.2768-10.0352-7.9872-0.6144-3.2768-1.4336-6.5536-1.8432-9.8304-1.024-5.5296 2.8672-10.8544 8.3968-11.8784 5.5296-1.024 10.8544 2.8672 11.8784 8.3968 0.4096 2.8672 1.024 5.9392 1.6384 8.8064 1.2288 5.5296-2.2528 11.0592-7.7824 12.288-0.8192 0.2048-1.4336 0.2048-2.2528 0.2048zM858.3168 826.1632c-2.6624 0-5.3248-1.024-7.168-3.072-5.9392-5.9392-12.288-11.0592-19.456-15.36l-57.1392-35.2256c-10.6496-6.5536-20.2752-14.7456-28.672-24.3712l-0.4096-0.4096-0.2048-0.2048-0.4096-0.4096c-6.7584-7.9872-12.4928-17.408-17.6128-28.2624-2.4576-5.12-0.2048-11.264 4.9152-13.5168 5.12-2.4576 11.264-0.2048 13.5168 4.9152 5.3248 11.264 10.8544 19.2512 14.7456 23.7568l0.6144 0.6144c7.168 7.9872 15.1552 14.9504 24.1664 20.48l57.1392 35.2256c8.3968 5.12 16.1792 11.264 23.1424 18.432 3.8912 4.096 3.8912 10.4448 0 14.5408-1.8432 1.8432-4.5056 2.8672-7.168 2.8672zM729.7024 364.7488h-0.8192c-2.048-0.2048-4.3008-0.2048-6.3488-0.2048-5.7344 0-10.24-4.5056-10.24-10.24s4.5056-10.24 10.24-10.24c2.6624 0 5.3248 0 7.7824 0.2048 5.7344 0.4096 9.8304 5.3248 9.4208 10.8544-0.2048 5.5296-4.7104 9.6256-10.0352 9.6256zM786.2272 562.7904c-1.2288 0-2.4576-0.2048-3.6864-0.6144-5.3248-2.048-7.7824-7.9872-5.7344-13.312l26.2144-66.3552c10.6496-27.0336 7.3728-56.32-9.0112-80.2816-8.192-12.0832-18.6368-21.504-31.1296-28.0576-4.9152-2.6624-6.9632-8.8064-4.3008-13.9264 2.6624-4.9152 8.8064-6.9632 13.9264-4.3008 15.5648 8.192 28.4672 19.8656 38.5024 34.6112 20.2752 29.696 24.1664 65.7408 11.0592 99.328l-26.2144 66.3552c-1.6384 4.096-5.5296 6.5536-9.6256 6.5536z" fill="#FFFFFF" p-id="12707"></path><path d="M759.7509 487.926265a36.6592 61.2352 44.999 1 0 86.598139-86.601162 36.6592 61.2352 44.999 1 0-86.598139 86.601162Z" fill="#508DEF" p-id="12708"></path><path d="M779.0592 505.2416c-10.6496 0-19.8656-3.4816-26.624-10.24-9.6256-9.6256-12.4928-23.9616-8.3968-40.7552 3.6864-14.7456 12.9024-30.1056 25.6-43.008 28.2624-28.2624 65.1264-36.0448 83.5584-17.408 18.6368 18.6368 10.8544 55.296-17.408 83.5584-12.9024 12.9024-28.0576 21.9136-43.008 25.6-4.5056 1.6384-9.216 2.2528-13.7216 2.2528z m47.7184-100.7616c-11.6736 0-27.8528 6.9632-42.3936 21.504-10.0352 10.0352-17.6128 22.3232-20.2752 33.3824-2.2528 9.216-1.2288 16.9984 2.8672 21.2992 4.3008 4.3008 11.8784 5.3248 21.2992 2.8672 11.0592-2.8672 23.3472-10.24 33.3824-20.2752 21.2992-21.2992 26.2144-45.8752 17.408-54.6816-2.6624-2.8672-6.9632-4.096-12.288-4.096zM226.5088 260.096c-5.7344 0-10.24-4.5056-10.24-10.24v-32.768c0-5.7344 4.5056-10.24 10.24-10.24s10.24 4.5056 10.24 10.24v32.768c0 5.7344-4.7104 10.24-10.24 10.24z" fill="#1C1D21" p-id="12709"></path><path d="M242.8928 243.712h-32.768c-5.7344 0-10.24-4.5056-10.24-10.24s4.5056-10.24 10.24-10.24h32.768c5.7344 0 10.24 4.5056 10.24 10.24s-4.7104 10.24-10.24 10.24zM785.2032 269.5168c-5.7344 0-10.24-4.5056-10.24-10.24v-32.768c0-5.7344 4.5056-10.24 10.24-10.24s10.24 4.5056 10.24 10.24v32.768c0 5.7344-4.5056 10.24-10.24 10.24z" fill="#1C1D21" p-id="12710"></path><path d="M801.5872 253.1328h-32.768c-5.7344 0-10.24-4.5056-10.24-10.24s4.5056-10.24 10.24-10.24h32.768c5.7344 0 10.24 4.5056 10.24 10.24s-4.5056 10.24-10.24 10.24zM876.544 666.624c-5.7344 0-10.24-4.5056-10.24-10.24v-32.768c0-5.7344 4.5056-10.24 10.24-10.24s10.24 4.5056 10.24 10.24v32.768c0 5.7344-4.5056 10.24-10.24 10.24z" fill="#1C1D21" p-id="12711"></path><path d="M892.928 650.24h-32.768c-5.7344 0-10.24-4.5056-10.24-10.24s4.5056-10.24 10.24-10.24h32.768c5.7344 0 10.24 4.5056 10.24 10.24s-4.5056 10.24-10.24 10.24zM113.4592 656.5888c-5.7344 0-10.24-4.5056-10.24-10.24v-32.768c0-5.7344 4.5056-10.24 10.24-10.24s10.24 4.5056 10.24 10.24v32.768c0 5.5296-4.7104 10.24-10.24 10.24z" fill="#1C1D21" p-id="12712"></path><path d="M129.8432 640.2048h-32.768c-5.7344 0-10.24-4.5056-10.24-10.24s4.5056-10.24 10.24-10.24h32.768c5.7344 0 10.24 4.5056 10.24 10.24s-4.7104 10.24-10.24 10.24zM679.3216 147.0464c-5.7344 0-10.24-4.5056-10.24-10.24v-32.768c0-5.7344 4.5056-10.24 10.24-10.24s10.24 4.5056 10.24 10.24v32.768c0 5.7344-4.7104 10.24-10.24 10.24z" fill="#1C1D21" p-id="12713"></path><path d="M695.7056 130.6624h-32.768c-5.7344 0-10.24-4.5056-10.24-10.24s4.5056-10.24 10.24-10.24h32.768c5.7344 0 10.24 4.5056 10.24 10.24s-4.7104 10.24-10.24 10.24z" fill="#1C1D21" p-id="12714"></path></svg>