<?xml version="1.0" standalone="no"?><!DOCTYPE svg PUBLIC "-//W3C//DTD SVG 1.1//EN" "http://www.w3.org/Graphics/SVG/1.1/DTD/svg11.dtd"><svg t="1692066143208" class="icon" viewBox="0 0 1024 1024" version="1.1" xmlns="http://www.w3.org/2000/svg" p-id="6410" xmlns:xlink="http://www.w3.org/1999/xlink" width="512" height="512"><path d="M579.959846 466.263984l-7.239984 19.695955L107.680916 758.615321l-37.919914 2.711994 16.855962-21.399951 476.48692-273.66338z" fill="#424242" p-id="6411"></path><path d="M969.198964 701.91945a18.287959 18.287959 0 0 0-9.199979-15.607965L579.719847 466.255984 69.761002 761.327315a65.151852 65.151852 0 0 0 32.495926 56.399872l340.06323 196.767555a70.67184 70.67184 0 0 0 70.799839 0l418.679052-242.255452a75.04783 75.04783 0 0 0 37.431915-64.967852v-5.359988l-0.032 0.016z" fill="#E8EDEF" p-id="6412"></path><path d="M959.998985 718.319413l-446.878988 258.575414a70.67184 70.67184 0 0 1-70.799839 0L69.761002 761.327315a65.151852 65.151852 0 0 0 32.495926 56.399872l340.06323 196.767555a70.67184 70.67184 0 0 0 70.799839 0l418.679052-242.255452a75.04783 75.04783 0 0 0 37.431915-64.967852v-4.959989a18.319958 18.319958 0 0 1-9.223979 16.007964z" fill="#C8CED6" p-id="6413"></path><path d="M969.198964 701.91945c0 0.136 0.024 0.263999 0.024 0.399999v-0.407999l-0.024 0.016z" fill="#D1D1D1" p-id="6414"></path><path d="M170.792773 701.75945l46.079896 26.991939L523.239975 551.359791l-45.719897-26.239941z" fill="#212938" p-id="6415"></path><path d="M246.224602 745.423351l-63.599856 36.991916v3.415993l24.263945 14.079968 63.839856-36.711917v-3.679992z" fill="#284363" p-id="6416"></path><path d="M207.040691 796.519235l-24.415945-14.103968v3.415993l24.263945 14.079968 63.839856-36.711917v-3.679992z" fill="#212938" p-id="6417"></path><path d="M278.448529 763.839309l-63.599856 36.991917v3.415992l33.647924 19.615955 63.839855-36.703916v-3.679992z" fill="#284363" p-id="6418"></path><path d="M248.640597 820.479181l-33.799924-19.647955v3.415992l33.655924 19.615955 63.839855-36.703916v-3.679992z" fill="#212938" p-id="6419"></path><path d="M349.976367 722.663403l-63.607856 36.991916v3.415992l33.647924 19.607956 63.839855-36.703917v-3.679992z" fill="#284363" p-id="6420"></path><path d="M320.168435 779.295274l-33.799924-19.647955v3.423992l33.647924 19.607956 63.839855-36.703917v-3.679992z" fill="#212938" p-id="6421"></path><path d="M416.424217 732.319381l-63.599856 36.991916v3.415992l33.647923 19.615956 63.839856-36.711917v-3.679992z" fill="#284363" p-id="6422"></path><path d="M386.624284 788.951253l-33.799923-19.639956v3.415992l33.647923 19.615956 63.839856-36.711917v-3.679992z" fill="#212938" p-id="6423"></path><path d="M466.960102 750.975339l-63.607856 36.991916v3.415992l33.647924 19.607956 63.839855-36.703917v-3.679992z" fill="#284363" p-id="6424"></path><path d="M437.15217 807.59921l-33.799924-19.631955v3.415992l33.647924 19.607956 63.839855-36.703917v-3.679992z" fill="#212938" p-id="6425"></path><path d="M538.087941 709.919432l-63.599856 36.991916v3.415992l33.647924 19.607956 63.839855-36.703917v-3.679992z" fill="#284363" p-id="6426"></path><path d="M508.288008 766.551303l-33.807923-19.647955v3.423992l33.655924 19.607956 63.839855-36.703917v-3.679992z" fill="#212938" p-id="6427"></path><path d="M610.703776 668.199526l-63.599856 36.991916v3.415993l33.647924 19.615955 63.839856-36.711917v-3.679991z" fill="#284363" p-id="6428"></path><path d="M580.903844 724.831398l-33.799924-19.639956v3.415993l33.647924 19.615955 63.839856-36.711917v-3.679991z" fill="#212938" p-id="6429"></path><path d="M487.912055 690.959475l-63.607856 36.983916v3.423992l33.647923 19.607956 63.839856-36.703917v-3.679992z" fill="#284363" p-id="6430"></path><path d="M458.104122 747.583346l-33.799923-19.631955v3.415992l33.647923 19.607956 63.839856-36.703917v-3.679992z" fill="#212938" p-id="6431"></path><path d="M559.887892 649.055569l-63.599856 36.983917v3.415992l33.647923 19.615956 63.839856-36.711917v-3.679992z" fill="#284363" p-id="6432"></path><path d="M530.079959 705.679441l-33.791923-19.639955v3.415992l33.647923 19.615956 63.839856-36.711917v-3.679992z" fill="#212938" p-id="6433"></path><path d="M632.015728 608.087662l-63.599856 36.991916v3.415993l33.647924 19.607955 63.839855-36.703917v-3.679991z" fill="#284363" p-id="6434"></path><path d="M602.207796 664.719534l-33.799924-19.639956v3.415993l33.655924 19.607955 63.839855-36.703917v-3.679991z" fill="#212938" p-id="6435"></path><path d="M421.224206 681.599496l-63.599856 36.991916v3.415992l33.647924 19.615956 63.839855-36.703917v-3.679992z" fill="#284363" p-id="6436"></path><path d="M391.424273 738.239367l-33.807923-19.647955v3.415992l33.655924 19.615956 63.839855-36.703917v-3.679992z" fill="#212938" p-id="6437"></path><path d="M492.936043 639.89559l-63.599856 36.983916v3.415993l33.647924 19.607955 63.839855-36.703917v-3.679991z" fill="#284363" p-id="6438"></path><path d="M463.136111 696.519462l-33.807924-19.639956v3.415993l33.655924 19.607955 63.839855-36.703917v-3.679991z" fill="#212938" p-id="6439"></path><path d="M564.695881 598.271685l-63.599856 36.983916v3.423992l33.647923 19.607956 63.839856-36.703917v-3.679992z" fill="#284363" p-id="6440"></path><path d="M534.895948 654.895556l-33.799923-19.631955v3.415992l33.647923 19.607956 63.839856-36.703917v-3.679992z" fill="#212938" p-id="6441"></path><path d="M636.319718 556.983778l-63.599856 36.983916v3.415993l33.647924 19.615955 63.839856-36.711917v-3.679991z" fill="#284363" p-id="6442"></path><path d="M606.519786 613.60765l-33.799924-19.639956v3.415993l33.647924 19.615955 63.839856-36.711917v-3.679991z" fill="#212938" p-id="6443"></path><path d="M378.680302 793.295243l-33.887923-19.631956-88.583799 51.327884v3.415992l33.647923 19.607956 88.823799-50.999885v-3.679991z" fill="#284363" p-id="6444"></path><path d="M256.20858 824.991171v3.415992l33.647923 19.607956 88.823799-50.999885v-3.679991l-88.671799 51.295883z" fill="#212938" p-id="6445"></path><path d="M429.376187 812.511199l-33.823923-19.599955-97.495779 56.559871v3.415993l33.655923 19.607955 97.727779-56.351872v-3.679992z" fill="#284363" p-id="6446"></path><path d="M298.056485 849.463115v3.415993l33.655923 19.615955 97.727779-56.351872v-3.599992l-97.575779 56.559872z" fill="#212938" p-id="6447"></path><path d="M429.376187 812.511199l0.064 0.04v-0.08z" fill="#292929" p-id="6448"></path><path d="M403.200246 836.255145l-63.607855 36.991917v3.415992l33.647923 19.607955 63.839856-36.703916v-3.679992z" fill="#284363" p-id="6449"></path><path d="M373.392314 892.879017l-33.799923-19.631955v3.415992l33.647923 19.607955 63.839856-36.703916v-3.679992z" fill="#212938" p-id="6450"></path><path d="M474.736084 794.847239l-63.599855 36.991916v3.415993l33.647923 19.607955 63.839856-36.703917v-3.679991z" fill="#284363" p-id="6451"></path><path d="M444.936152 851.471111l-33.807923-19.631956v3.415993l33.655923 19.607955 63.839856-36.703917v-3.679991z" fill="#212938" p-id="6452"></path><path d="M688.927599 670.383521L482.464067 790.447249v3.415992l33.647924 19.607956 206.703531-119.775729v-3.679991z" fill="#284363" p-id="6453"></path><path d="M516.26399 810.079205l-33.799923-19.631956v3.415992l33.647924 19.607956 206.703531-119.775729v-3.679991z" fill="#212938" p-id="6454"></path><path d="M760.903436 629.303614l-63.607856 36.991916v3.415993l33.655924 19.607955 63.839855-36.703917v-3.679991z" fill="#284363" p-id="6455"></path><path d="M731.095504 685.935486l-33.799924-19.647956v3.423993l33.655924 19.607955 63.839855-36.703917v-3.679991z" fill="#212938" p-id="6456"></path><path d="M317.480441 704.127445l-63.599856 36.991916v3.415992l24.271945 14.079968 63.839855-36.703917v-3.679991z" fill="#284363" p-id="6457"></path><path d="M278.296529 755.223329l-24.423944-14.103968v3.415992l24.279945 14.079968 63.839855-36.703917v-3.679991z" fill="#212938" p-id="6458"></path><path d="M389.416278 662.559539l-63.599856 36.983916v3.415992l24.263945 14.079968 63.839855-36.703916v-3.679992z" fill="#284363" p-id="6459"></path><path d="M350.240366 713.647423l-24.423944-14.103968v3.415992l24.263945 14.079968 63.839855-36.703916v-3.679992z" fill="#212938" p-id="6460"></path><path d="M461.128115 620.975633l-63.599856 36.991916v3.415993l24.263945 14.079968 63.839856-36.711917v-3.679992z" fill="#284363" p-id="6461"></path><path d="M421.944204 672.071517l-24.423945-14.103968v3.415993l24.271945 14.079968 63.839856-36.711917v-3.679992z" fill="#212938" p-id="6462"></path><path d="M532.271954 579.631727l-63.607856 36.991916v3.407992l24.271945 14.079968 63.839856-36.703917v-3.679991z" fill="#284363" p-id="6463"></path><path d="M493.088043 630.719611l-24.423945-14.103968v3.415992l24.271945 14.079968 63.839856-36.703917v-3.679991z" fill="#212938" p-id="6464"></path><path d="M603.943792 538.36782l-63.599856 36.991916v3.415993l24.263945 14.079968 63.839855-36.711917v-3.679992z" fill="#284363" p-id="6465"></path><path d="M564.75988 589.463704l-24.415944-14.103968v3.415993l24.263945 14.079968 63.839855-36.711917v-3.679992z" fill="#212938" p-id="6466"></path><path d="M753.335453 624.871624l-75.303829-43.9119-38.823912 22.823948v3.415992l37.983914 22.487949-59.103866 34.239923 0.048 0.056v3.415992l33.647923 19.615955 101.55177-58.399867v-3.679992z" fill="#284363" p-id="6467"></path><path d="M521.799978 835.079148l184.335582-106.327759 83.95981 48.207891-184.263583 106.887758z" fill="#C8CED6" p-id="6468"></path><path d="M680.287619 627.895617L639.199712 603.783672v3.415992l37.983914 22.487949zM652.127683 683.719491l-0.176-0.104-0.016 0.008-33.799923-19.639955v3.415992l33.647923 19.615955 101.55177-58.399867v-3.679992l-26.743939 15.479965z" fill="#212938" p-id="6469"></path><path d="M570.103868 9.745018l0.024-0.016L561.223888 4.56103A33.759924 33.759924 0 0 0 527.359965 4.54503L88.576959 258.496454A71.791837 71.791837 0 0 0 52.77704 320.640314v411.295068c0 12.143972 6.479985 23.351947 16.983962 29.391933l510.198844-295.063331V26.080981a18.319958 18.319958 0 0 0-9.855978-16.335963z" fill="#284363" p-id="6470"></path><path d="M69.761002 330.152292a70.959839 70.959839 0 0 1 35.39992-61.439861l0.399999-0.239999L552.271909 10.065017a18.207959 18.207959 0 0 1 17.839959-0.311999l0.024-0.016L561.223888 4.56103A33.759924 33.759924 0 0 0 527.359965 4.54503L88.576959 258.496454A71.791837 71.791837 0 0 0 52.77704 320.640314v411.295068c0 12.143972 6.479985 23.351947 16.983962 29.391933V330.144292z" fill="#212938" p-id="6471"></path><path d="M86.616964 308.744341v413.183063l476.48692-275.471376V33.048965z" fill="#33AEFF" p-id="6472"></path><path d="M294.720492 601.615677l234.943468-135.823692 33.439924-93.311789V33.040965l-81.527815 47.175893zM382.352294 137.632728L176.71276 256.616459 86.616964 507.999889v213.919515l108.895753-62.959857z" fill="#FFFFFF" opacity=".2" p-id="6473"></path><path d="M645.447698 178.304636L565.351879 29.728973 86.616964 308.688341v101.55977l80.175818 46.759894V504.799896c0 28.535935 30.83993 46.359895 55.487874 32.071928a81.303816 81.303816 0 0 0 40.479909-70.343841v-65.367852l96.095782-55.911873v47.759892c0 28.543935 30.83993 46.375895 55.495874 32.079927a81.303816 81.303816 0 0 0 40.479909-70.351841v-65.335852l96.127782-55.935873v47.639892c0 28.543935 30.84793 46.367895 55.495874 32.079927 25.055943-14.535967 39.063911-40.431908 39.063911-69.439842v-65.479852l-0.071999 0.04z" fill="#F43834" p-id="6474"></path><path d="M358.800347 345.136258l-81.647815-147.679665-95.975782 55.975873 81.743814 147.623665v47.791892c0 28.535935 30.84793 46.367895 55.495875 32.071927a81.303816 81.303816 0 0 0 40.479908-70.35184v-65.479852l-0.088 0.048zM469.216097 85.680846l-95.927783 55.831873 81.695815 147.759666v47.791891c0 28.535935 30.83993 46.359895 55.495874 32.071928a81.303816 81.303816 0 0 0 40.479909-70.343841v-65.487852L469.216097 85.680846z" fill="#E3E3E3" p-id="6475"></path><path d="M166.792782 457.008005V504.799896c0 28.535935 30.83993 46.359895 55.487874 32.071928a81.303816 81.303816 0 0 0 40.479909-70.343841v-65.495852L166.800782 457.016005z" fill="#C40041" p-id="6476"></path><path d="M262.920564 401.056131v47.791892c0 28.535935 30.84793 46.367895 55.495875 32.071927a81.303816 81.303816 0 0 0 40.479908-70.35184v-65.479852l-95.975783 55.967873z" fill="#C8CED6" p-id="6477"></path><path d="M358.848347 345.224258v47.791892c0 28.535935 30.84793 46.367895 55.495874 32.071927a81.303816 81.303816 0 0 0 40.479909-70.343841v-65.487851l-95.975783 55.967873zM550.959912 233.320511v47.783892c0 28.543935 30.84793 46.367895 55.495874 32.079927 25.055943-14.535967 39.063911-40.431908 39.063911-69.439842v-65.479852l-94.559785 55.055875z" fill="#C40041" p-id="6478"></path><path d="M454.984129 289.272385v47.791891c0 28.535935 30.84793 46.367895 55.495874 32.071928a81.303816 81.303816 0 0 0 40.479909-70.343841v-65.487852l-95.975783 55.967874z" fill="#C8CED6" p-id="6479"></path><path d="M166.792782 457.008005L86.616964 410.248111V308.696341z" fill="#C40041" p-id="6480"></path></svg>